<svg width="62" height="48" viewBox="0 0 62 48" fill="none" xmlns="http://www.w3.org/2000/svg">
<g id="Group 659">
<path id="Path 104" d="M45.2968 26.9474C44.3578 26.9474 43.5188 26.9414 42.6798 26.9474C40.6798 26.9654 38.6708 27.0104 36.6658 27.0064C35.2288 27.0064 34.5658 26.3774 34.5418 24.9604C34.3938 17.6337 34.2605 10.3067 34.1418 2.9794C34.1088 0.741405 34.7698 0.138407 36.9948 0.128407C44.3282 0.0950737 51.6581 0.0617343 58.9848 0.028401C61.0848 0.019401 61.8358 0.7624 61.7848 2.8494C61.6198 9.2354 61.5208 15.6254 61.2208 22.0054C61.0654 25.9284 60.2215 29.7936 58.7278 33.4244C57.7462 35.8773 56.2611 38.0969 54.3682 39.94C52.4754 41.7831 50.2169 43.2086 47.7388 44.1244C44.6702 45.4019 41.4288 46.2161 38.1208 46.5404C38.0898 46.5404 38.0588 46.5494 38.0278 46.5524C35.1378 46.8624 34.8828 46.6404 34.8968 43.8214C34.9048 42.1614 34.9458 40.5004 34.9088 38.8404C34.8918 38.0864 35.1298 37.7584 35.9088 37.7404C36.6283 37.712 37.3438 37.6193 38.0468 37.4634C39.2047 37.2372 40.2971 36.7536 41.243 36.0484C42.1889 35.3433 42.9643 34.4345 43.5118 33.3894C44.5447 31.3881 45.1524 29.1949 45.2968 26.9474ZM36.5848 24.7474C37.0268 24.7674 37.3638 24.7884 37.6998 24.7954C40.3608 24.8534 43.0228 24.9044 45.6838 24.9664C46.7548 24.9914 47.0198 25.2604 46.9458 26.3404C46.8301 28.7234 46.2499 31.0609 45.2378 33.2214C44.6571 34.5121 43.7914 35.6545 42.7058 36.5625C41.6201 37.4706 40.3428 38.1209 38.9698 38.4644C38.1578 38.6744 37.3148 38.7644 36.5108 38.9104V45.1514C36.9848 45.1514 37.3588 45.1824 37.7268 45.1514C41.4304 44.6882 45.013 43.5288 48.2858 41.7344C52.0599 39.8508 54.9568 36.5775 56.3678 32.6024C57.4284 29.8162 58.043 26.8801 58.1888 23.9024C58.4798 17.4024 58.6078 10.8854 58.7968 4.37641C58.7869 4.13965 58.7592 3.90398 58.7138 3.67141L37.0688 3.1044C36.9068 10.3704 36.7468 17.5254 36.5858 24.7504L36.5848 24.7474Z" fill="#394E66"/>
<path id="Path 105" d="M11.1257 27.0032C8.24572 27.0032 5.64972 27.0032 3.05472 27.0032C1.33672 27.0032 1.06371 26.7082 1.07771 24.9542C1.13971 17.3729 1.20038 9.79156 1.25971 2.21023C1.26971 0.942232 1.28172 0.952229 2.49972 0.910229C10.0771 0.676229 17.654 0.437234 25.2307 0.193234C27.0007 0.139234 27.2067 0.377226 27.2457 2.16623C27.3537 7.11423 27.5537 12.0662 27.5637 17.0112C27.6992 22.2828 27.0057 27.5429 25.5087 32.5992C24.2397 36.5592 22.4217 40.1892 19.1527 42.9382C16.5987 45.0852 13.5107 45.8482 10.3527 46.4382C7.79771 46.9122 5.23072 47.3262 2.66772 47.7562C1.25472 47.9932 0.529715 47.4632 0.477715 46.0652C0.391715 43.7799 0.341713 41.4936 0.327713 39.2062C0.292083 38.922 0.319221 38.6334 0.407211 38.3608C0.495201 38.0882 0.641905 37.8382 0.836983 37.6285C1.03206 37.4187 1.27076 37.2543 1.53628 37.1468C1.80179 37.0393 2.08766 36.9913 2.37372 37.0062C6.38372 36.9002 8.68572 34.6252 9.98472 31.0962C10.4457 29.8402 10.7107 28.5162 11.1257 27.0032ZM2.82471 1.99723V24.7972H4.09472C6.56872 24.7972 9.04372 24.7892 11.5177 24.8082C12.8177 24.8182 13.5227 25.4082 13.5017 26.5442C13.3967 32.2032 10.9847 37.8562 3.90172 39.5342C3.66472 39.5902 3.28272 39.8002 3.27672 39.9492C3.22772 41.3032 3.24772 42.6602 3.24772 44.1822C6.65472 43.4072 9.85772 42.8072 12.9857 41.9362C15.2007 41.3698 17.2356 40.2504 18.9 38.683C20.5643 37.1155 21.8036 35.1513 22.5017 32.9742C23.7042 29.3419 24.3928 25.5593 24.5477 21.7362C24.9357 15.6742 25.1767 9.60324 25.4767 3.53624C25.4947 3.17324 25.4767 2.80822 25.4767 2.34922L2.82471 1.99723Z" fill="#394E66"/>
</g>
</svg>
