<svg width="63" height="49" viewBox="0 0 63 49" fill="none" xmlns="http://www.w3.org/2000/svg">
<g id="Group 660">
<path id="Path 104" d="M17.5769 21.2435C18.5209 21.2435 19.3639 21.2495 20.2069 21.2435C22.2219 21.2255 24.2379 21.1805 26.2529 21.1845C27.6979 21.1845 28.3599 21.8165 28.3879 23.2415C28.5365 30.6075 28.6699 37.9742 28.7879 45.3415C28.8209 47.5915 28.1569 48.1975 25.9199 48.2085C18.5506 48.2418 11.1816 48.2752 3.8129 48.3085C1.7049 48.3175 0.946884 47.5715 1.00089 45.4725C1.16689 39.0525 1.2659 32.6285 1.5679 26.2145C1.72457 22.2708 2.57314 18.3854 4.07489 14.7355C5.06169 12.2698 6.55474 10.0386 8.45758 8.18583C10.3604 6.33311 12.6307 4.90015 15.1219 3.9795C18.2067 2.69519 21.4653 1.87658 24.7909 1.5505C24.8219 1.5505 24.8529 1.54151 24.8849 1.53851C27.7909 1.22651 28.0469 1.4505 28.0329 4.2835C28.0249 5.9525 27.9839 7.62251 28.0209 9.29051C28.0379 10.0485 27.7989 10.3785 27.0129 10.3985C26.2897 10.427 25.5705 10.52 24.8639 10.6765C23.6994 10.9044 22.601 11.3913 21.6501 12.1009C20.6991 12.8106 19.9198 13.725 19.3699 14.7765C18.3332 16.7857 17.7228 18.9874 17.5769 21.2435ZM26.3349 23.4525C25.8899 23.4325 25.5519 23.4115 25.2139 23.4035C22.5389 23.3455 19.8629 23.2935 17.1869 23.2315C16.1109 23.2065 15.8439 22.9315 15.9189 21.8505C16.0352 19.4547 16.6184 17.1047 17.6359 14.9325C18.2196 13.6351 19.0897 12.4867 20.1808 11.5738C21.272 10.6609 22.5558 10.0071 23.9359 9.66151C24.7519 9.44951 25.5989 9.36151 26.4079 9.21351L26.4079 2.94351C25.9319 2.94351 25.5559 2.91251 25.1859 2.94351C21.4627 3.40889 17.8612 4.57402 14.5709 6.37751C10.7767 8.27088 7.86433 11.5614 6.44589 15.5575C5.37918 18.3594 4.76126 21.312 4.6149 24.3065C4.3229 30.8455 4.19287 37.3925 4.00388 43.9365C4.01396 44.1746 4.04205 44.4116 4.08789 44.6455L25.8479 45.2155C26.0129 37.9115 26.1729 30.7185 26.3359 23.4545L26.3349 23.4525Z" fill="#394E66"/>
<path id="Path 105" d="M51.9318 21.1909C54.8318 21.1909 57.4318 21.1909 60.0458 21.1909C61.7728 21.1909 62.0458 21.4909 62.0328 23.2499C61.9701 30.8719 61.9091 38.4936 61.8498 46.1149C61.8398 47.3899 61.8278 47.3799 60.6028 47.4149C52.9854 47.6502 45.3681 47.8902 37.7508 48.1349C35.9708 48.1889 35.7638 47.9499 35.7248 46.1509C35.6168 41.1759 35.4148 36.2019 35.4058 31.2269C35.2696 25.9273 35.9668 20.6392 37.4718 15.5559C38.7468 11.5739 40.5718 7.92491 43.8618 5.16191C46.4288 3.00391 49.5338 2.23591 52.7078 1.64691C55.2768 1.16991 57.8568 0.75491 60.4338 0.321911C61.8548 0.0829124 62.5828 0.61591 62.6338 2.02191C62.7198 4.31924 62.7701 6.61925 62.7848 8.92192C62.8215 9.20791 62.7949 9.49848 62.707 9.77308C62.619 10.0477 62.4719 10.2996 62.2758 10.5111C62.0798 10.7226 61.8398 10.8884 61.5726 10.9969C61.3054 11.1054 61.0177 11.1539 60.7298 11.1389C56.6988 11.2459 54.3838 13.5319 53.0778 17.0799C52.6198 18.3389 52.3488 19.6689 51.9318 21.1909ZM60.2778 46.3329V23.4119H59.0018C56.5138 23.4119 54.0268 23.4199 51.5388 23.4009C50.2278 23.3909 49.5228 22.8009 49.5438 21.6549C49.6498 15.9659 52.0748 10.2819 59.1978 8.59591C59.4358 8.53891 59.8208 8.32891 59.8258 8.17891C59.8748 6.81791 59.8548 5.45391 59.8548 3.92291C56.4298 4.70191 53.2098 5.30492 50.0648 6.18092C47.8382 6.75043 45.7926 7.8757 44.1196 9.45135C42.4465 11.027 41.2007 13.0015 40.4988 15.1899C39.2897 18.8423 38.5973 22.6458 38.4418 26.4899C38.0518 32.5839 37.8088 38.6899 37.5078 44.7899C37.4898 45.1549 37.5078 45.5219 37.5078 45.9839L60.2778 46.3329Z" fill="#394E66"/>
</g>
</svg>
