<svg width="24" height="24" viewBox="0 0 24 24" fill="none" xmlns="http://www.w3.org/2000/svg">
<g id="Group 8">
<path id="Path 22" d="M10.4399 2.6C14.76 2.6 18.28 6.12 18.28 10.44C18.28 14.76 14.76 18.28 10.4399 18.28C6.12 18.28 2.59998 14.76 2.59998 10.44C2.59998 6.12 6.12 2.6 10.4399 2.6ZM10.4399 1C5.21997 1 1 5.224 1 10.44C1 15.656 5.21997 19.88 10.4399 19.88C15.66 19.88 19.88 15.656 19.88 10.44C19.88 5.224 15.66 1 10.4399 1Z" fill="#394E66" stroke="#394E66"/>
<path id="Path 23" d="M16.1195 10.4398C16.1195 7.30376 13.5795 4.75977 10.4395 4.75977" stroke="#394E66" stroke-width="1.6"/>
<path id="Path 24" d="M16.3604 16.3604L23.0004 23.0004" stroke="#394E66" stroke-width="1.6"/>
</g>
</svg>
